<mxfile host="app.diagrams.net" modified="2023-06-08T06:06:44.702Z" agent="Mozilla/5.0 (X11; Linux x86_64; rv:109.0) Gecko/20100101 Firefox/113.0" etag="6B7dpHgQVByOV4GYhsQU" version="21.3.7" type="device">
  <diagram id="C5RBs43oDa-KdzZeNtuy" name="Page-1">
    <mxGraphModel dx="922" dy="487" grid="1" gridSize="10" guides="1" tooltips="1" connect="1" arrows="1" fold="1" page="1" pageScale="1" pageWidth="827" pageHeight="1169" math="0" shadow="0">
      <root>
        <mxCell id="WIyWlLk6GJQsqaUBKTNV-0" />
        <mxCell id="WIyWlLk6GJQsqaUBKTNV-1" parent="WIyWlLk6GJQsqaUBKTNV-0" />
        <mxCell id="gQ4uNMBU5wz3fI6kMUp5-2" style="edgeStyle=orthogonalEdgeStyle;rounded=0;orthogonalLoop=1;jettySize=auto;html=1;exitX=0.5;exitY=1;exitDx=0;exitDy=0;exitPerimeter=0;entryX=0.5;entryY=0;entryDx=0;entryDy=0;" edge="1" parent="WIyWlLk6GJQsqaUBKTNV-1" source="gQ4uNMBU5wz3fI6kMUp5-0" target="gQ4uNMBU5wz3fI6kMUp5-1">
          <mxGeometry relative="1" as="geometry" />
        </mxCell>
        <mxCell id="gQ4uNMBU5wz3fI6kMUp5-0" value="START" style="strokeWidth=2;html=1;shape=mxgraph.flowchart.start_2;whiteSpace=wrap;" vertex="1" parent="WIyWlLk6GJQsqaUBKTNV-1">
          <mxGeometry x="130" y="20" width="100" height="70" as="geometry" />
        </mxCell>
        <mxCell id="gQ4uNMBU5wz3fI6kMUp5-4" style="edgeStyle=orthogonalEdgeStyle;rounded=0;orthogonalLoop=1;jettySize=auto;html=1;exitX=0.5;exitY=1;exitDx=0;exitDy=0;entryX=0.5;entryY=0;entryDx=0;entryDy=0;" edge="1" parent="WIyWlLk6GJQsqaUBKTNV-1" source="gQ4uNMBU5wz3fI6kMUp5-1" target="gQ4uNMBU5wz3fI6kMUp5-3">
          <mxGeometry relative="1" as="geometry" />
        </mxCell>
        <mxCell id="gQ4uNMBU5wz3fI6kMUp5-1" value="READ TO=(x&lt;sub&gt;i&lt;/sub&gt;,y&lt;sub&gt;i&lt;/sub&gt;, i=1..M)" style="shape=parallelogram;html=1;strokeWidth=2;perimeter=parallelogramPerimeter;whiteSpace=wrap;rounded=1;arcSize=12;size=0.13636363636363635;" vertex="1" parent="WIyWlLk6GJQsqaUBKTNV-1">
          <mxGeometry x="117.5" y="100" width="125" height="50" as="geometry" />
        </mxCell>
        <mxCell id="gQ4uNMBU5wz3fI6kMUp5-6" style="edgeStyle=orthogonalEdgeStyle;rounded=0;orthogonalLoop=1;jettySize=auto;html=1;exitX=0.5;exitY=1;exitDx=0;exitDy=0;entryX=0.5;entryY=0;entryDx=0;entryDy=0;" edge="1" parent="WIyWlLk6GJQsqaUBKTNV-1" source="gQ4uNMBU5wz3fI6kMUp5-3" target="gQ4uNMBU5wz3fI6kMUp5-5">
          <mxGeometry relative="1" as="geometry" />
        </mxCell>
        <mxCell id="gQ4uNMBU5wz3fI6kMUp5-3" value="&lt;div&gt;Initialize positions &lt;br&gt;&lt;/div&gt;&lt;div&gt;p&lt;sub&gt;i&lt;/sub&gt;, i=1,..,M&lt;br&gt;&lt;/div&gt;" style="rounded=1;whiteSpace=wrap;html=1;absoluteArcSize=1;arcSize=14;strokeWidth=2;" vertex="1" parent="WIyWlLk6GJQsqaUBKTNV-1">
          <mxGeometry x="115" y="170" width="115" height="50" as="geometry" />
        </mxCell>
        <mxCell id="gQ4uNMBU5wz3fI6kMUp5-8" style="edgeStyle=orthogonalEdgeStyle;rounded=0;orthogonalLoop=1;jettySize=auto;html=1;exitX=0.5;exitY=1;exitDx=0;exitDy=0;entryX=0.5;entryY=0;entryDx=0;entryDy=0;" edge="1" parent="WIyWlLk6GJQsqaUBKTNV-1" source="gQ4uNMBU5wz3fI6kMUp5-5" target="gQ4uNMBU5wz3fI6kMUp5-7">
          <mxGeometry relative="1" as="geometry" />
        </mxCell>
        <mxCell id="gQ4uNMBU5wz3fI6kMUp5-5" value="&lt;div&gt;Initialize velocities&lt;br&gt;&lt;/div&gt;&lt;div&gt;u&lt;sub&gt;i&lt;/sub&gt;, i=1,..,M&lt;br&gt;&lt;/div&gt;" style="rounded=1;whiteSpace=wrap;html=1;absoluteArcSize=1;arcSize=14;strokeWidth=2;" vertex="1" parent="WIyWlLk6GJQsqaUBKTNV-1">
          <mxGeometry x="115" y="240" width="115" height="50" as="geometry" />
        </mxCell>
        <mxCell id="gQ4uNMBU5wz3fI6kMUp5-10" style="edgeStyle=orthogonalEdgeStyle;rounded=0;orthogonalLoop=1;jettySize=auto;html=1;exitX=0.5;exitY=1;exitDx=0;exitDy=0;entryX=0.5;entryY=0;entryDx=0;entryDy=0;" edge="1" parent="WIyWlLk6GJQsqaUBKTNV-1" source="gQ4uNMBU5wz3fI6kMUp5-7" target="gQ4uNMBU5wz3fI6kMUp5-9">
          <mxGeometry relative="1" as="geometry" />
        </mxCell>
        <mxCell id="gQ4uNMBU5wz3fI6kMUp5-7" value="iter=0" style="rounded=1;whiteSpace=wrap;html=1;absoluteArcSize=1;arcSize=14;strokeWidth=2;" vertex="1" parent="WIyWlLk6GJQsqaUBKTNV-1">
          <mxGeometry x="115" y="310" width="115" height="30" as="geometry" />
        </mxCell>
        <mxCell id="gQ4uNMBU5wz3fI6kMUp5-12" style="edgeStyle=orthogonalEdgeStyle;rounded=0;orthogonalLoop=1;jettySize=auto;html=1;exitX=0.5;exitY=1;exitDx=0;exitDy=0;entryX=0.5;entryY=0;entryDx=0;entryDy=0;" edge="1" parent="WIyWlLk6GJQsqaUBKTNV-1" source="gQ4uNMBU5wz3fI6kMUp5-9" target="gQ4uNMBU5wz3fI6kMUp5-11">
          <mxGeometry relative="1" as="geometry" />
        </mxCell>
        <mxCell id="gQ4uNMBU5wz3fI6kMUp5-9" value="i=1" style="rounded=1;whiteSpace=wrap;html=1;absoluteArcSize=1;arcSize=14;strokeWidth=2;" vertex="1" parent="WIyWlLk6GJQsqaUBKTNV-1">
          <mxGeometry x="115" y="360" width="115" height="30" as="geometry" />
        </mxCell>
        <mxCell id="gQ4uNMBU5wz3fI6kMUp5-14" style="edgeStyle=orthogonalEdgeStyle;rounded=0;orthogonalLoop=1;jettySize=auto;html=1;exitX=0.5;exitY=1;exitDx=0;exitDy=0;entryX=0.5;entryY=0;entryDx=0;entryDy=0;" edge="1" parent="WIyWlLk6GJQsqaUBKTNV-1" source="gQ4uNMBU5wz3fI6kMUp5-11" target="gQ4uNMBU5wz3fI6kMUp5-13">
          <mxGeometry relative="1" as="geometry" />
        </mxCell>
        <mxCell id="gQ4uNMBU5wz3fI6kMUp5-11" value="Calculate u&lt;sub&gt;i&lt;/sub&gt;" style="rounded=1;whiteSpace=wrap;html=1;absoluteArcSize=1;arcSize=14;strokeWidth=2;" vertex="1" parent="WIyWlLk6GJQsqaUBKTNV-1">
          <mxGeometry x="115" y="410" width="115" height="30" as="geometry" />
        </mxCell>
        <mxCell id="gQ4uNMBU5wz3fI6kMUp5-25" style="edgeStyle=orthogonalEdgeStyle;rounded=0;orthogonalLoop=1;jettySize=auto;html=1;exitX=1;exitY=0.5;exitDx=0;exitDy=0;entryX=0;entryY=0.25;entryDx=0;entryDy=0;" edge="1" parent="WIyWlLk6GJQsqaUBKTNV-1" source="gQ4uNMBU5wz3fI6kMUp5-13" target="gQ4uNMBU5wz3fI6kMUp5-16">
          <mxGeometry relative="1" as="geometry" />
        </mxCell>
        <mxCell id="gQ4uNMBU5wz3fI6kMUp5-13" value="p&lt;sub&gt;i&lt;/sub&gt;=p&lt;sub&gt;i&lt;/sub&gt;+u&lt;sub&gt;i&lt;/sub&gt;" style="rounded=1;whiteSpace=wrap;html=1;absoluteArcSize=1;arcSize=14;strokeWidth=2;" vertex="1" parent="WIyWlLk6GJQsqaUBKTNV-1">
          <mxGeometry x="110" y="460" width="115" height="30" as="geometry" />
        </mxCell>
        <mxCell id="gQ4uNMBU5wz3fI6kMUp5-18" style="edgeStyle=orthogonalEdgeStyle;rounded=0;orthogonalLoop=1;jettySize=auto;html=1;exitX=0.5;exitY=1;exitDx=0;exitDy=0;entryX=0.5;entryY=0;entryDx=0;entryDy=0;" edge="1" parent="WIyWlLk6GJQsqaUBKTNV-1" source="gQ4uNMBU5wz3fI6kMUp5-16" target="gQ4uNMBU5wz3fI6kMUp5-17">
          <mxGeometry relative="1" as="geometry" />
        </mxCell>
        <mxCell id="gQ4uNMBU5wz3fI6kMUp5-16" value="&lt;div&gt;Compute the mapping function g(x,p&lt;sub&gt;i&lt;/sub&gt;)&lt;/div&gt;&lt;div&gt;&lt;br&gt;&lt;/div&gt;" style="rounded=1;whiteSpace=wrap;html=1;absoluteArcSize=1;arcSize=14;strokeWidth=2;" vertex="1" parent="WIyWlLk6GJQsqaUBKTNV-1">
          <mxGeometry x="280.25" y="160" width="130" height="50" as="geometry" />
        </mxCell>
        <mxCell id="gQ4uNMBU5wz3fI6kMUp5-20" style="edgeStyle=orthogonalEdgeStyle;rounded=0;orthogonalLoop=1;jettySize=auto;html=1;exitX=0.5;exitY=1;exitDx=0;exitDy=0;entryX=0.5;entryY=0;entryDx=0;entryDy=0;" edge="1" parent="WIyWlLk6GJQsqaUBKTNV-1" source="gQ4uNMBU5wz3fI6kMUp5-17" target="gQ4uNMBU5wz3fI6kMUp5-19">
          <mxGeometry relative="1" as="geometry" />
        </mxCell>
        <mxCell id="gQ4uNMBU5wz3fI6kMUp5-17" value="Construct the reduced dataset TF using the g(x,p&lt;sub&gt;i&lt;/sub&gt;)" style="rounded=1;whiteSpace=wrap;html=1;absoluteArcSize=1;arcSize=14;strokeWidth=2;" vertex="1" parent="WIyWlLk6GJQsqaUBKTNV-1">
          <mxGeometry x="278.5" y="230" width="141" height="50" as="geometry" />
        </mxCell>
        <mxCell id="gQ4uNMBU5wz3fI6kMUp5-22" style="edgeStyle=orthogonalEdgeStyle;rounded=0;orthogonalLoop=1;jettySize=auto;html=1;exitX=0.5;exitY=1;exitDx=0;exitDy=0;entryX=0.5;entryY=0;entryDx=0;entryDy=0;" edge="1" parent="WIyWlLk6GJQsqaUBKTNV-1" source="gQ4uNMBU5wz3fI6kMUp5-19" target="gQ4uNMBU5wz3fI6kMUp5-21">
          <mxGeometry relative="1" as="geometry" />
        </mxCell>
        <mxCell id="gQ4uNMBU5wz3fI6kMUp5-19" value="Calcuate the penalty factor V" style="rounded=1;whiteSpace=wrap;html=1;absoluteArcSize=1;arcSize=14;strokeWidth=2;" vertex="1" parent="WIyWlLk6GJQsqaUBKTNV-1">
          <mxGeometry x="282.25" y="300" width="133.5" height="40" as="geometry" />
        </mxCell>
        <mxCell id="gQ4uNMBU5wz3fI6kMUp5-24" style="edgeStyle=orthogonalEdgeStyle;rounded=0;orthogonalLoop=1;jettySize=auto;html=1;exitX=0.5;exitY=1;exitDx=0;exitDy=0;entryX=0.454;entryY=-0.06;entryDx=0;entryDy=0;entryPerimeter=0;" edge="1" parent="WIyWlLk6GJQsqaUBKTNV-1" source="gQ4uNMBU5wz3fI6kMUp5-21" target="gQ4uNMBU5wz3fI6kMUp5-23">
          <mxGeometry relative="1" as="geometry" />
        </mxCell>
        <mxCell id="gQ4uNMBU5wz3fI6kMUp5-21" value="Train an RBF network on set TF with error f&lt;sub&gt;p&lt;/sub&gt;" style="rounded=1;whiteSpace=wrap;html=1;absoluteArcSize=1;arcSize=14;strokeWidth=2;" vertex="1" parent="WIyWlLk6GJQsqaUBKTNV-1">
          <mxGeometry x="280.25" y="360" width="141" height="50" as="geometry" />
        </mxCell>
        <mxCell id="gQ4uNMBU5wz3fI6kMUp5-27" style="edgeStyle=orthogonalEdgeStyle;rounded=0;orthogonalLoop=1;jettySize=auto;html=1;exitX=0.5;exitY=1;exitDx=0;exitDy=0;entryX=0.5;entryY=0;entryDx=0;entryDy=0;entryPerimeter=0;" edge="1" parent="WIyWlLk6GJQsqaUBKTNV-1" source="gQ4uNMBU5wz3fI6kMUp5-23" target="gQ4uNMBU5wz3fI6kMUp5-26">
          <mxGeometry relative="1" as="geometry" />
        </mxCell>
        <mxCell id="gQ4uNMBU5wz3fI6kMUp5-23" value="&lt;div&gt;Set the fitness fi as&lt;/div&gt;&lt;div&gt;f&lt;sub&gt;i&lt;/sub&gt;=f&lt;sub&gt;p&lt;/sub&gt;*(1+Î»V&lt;sup&gt;2&lt;/sup&gt;)&lt;br&gt;&lt;/div&gt;" style="rounded=1;whiteSpace=wrap;html=1;absoluteArcSize=1;arcSize=14;strokeWidth=2;" vertex="1" parent="WIyWlLk6GJQsqaUBKTNV-1">
          <mxGeometry x="282.25" y="430" width="141" height="50" as="geometry" />
        </mxCell>
        <mxCell id="gQ4uNMBU5wz3fI6kMUp5-30" style="edgeStyle=orthogonalEdgeStyle;rounded=0;orthogonalLoop=1;jettySize=auto;html=1;exitX=0;exitY=0.5;exitDx=0;exitDy=0;exitPerimeter=0;entryX=0.5;entryY=0;entryDx=0;entryDy=0;" edge="1" parent="WIyWlLk6GJQsqaUBKTNV-1" source="gQ4uNMBU5wz3fI6kMUp5-26" target="gQ4uNMBU5wz3fI6kMUp5-28">
          <mxGeometry relative="1" as="geometry" />
        </mxCell>
        <mxCell id="gQ4uNMBU5wz3fI6kMUp5-34" style="edgeStyle=orthogonalEdgeStyle;rounded=0;orthogonalLoop=1;jettySize=auto;html=1;exitX=1;exitY=0.5;exitDx=0;exitDy=0;exitPerimeter=0;entryX=0.5;entryY=0;entryDx=0;entryDy=0;entryPerimeter=0;" edge="1" parent="WIyWlLk6GJQsqaUBKTNV-1" source="gQ4uNMBU5wz3fI6kMUp5-26" target="gQ4uNMBU5wz3fI6kMUp5-32">
          <mxGeometry relative="1" as="geometry" />
        </mxCell>
        <mxCell id="gQ4uNMBU5wz3fI6kMUp5-35" value="NO" style="edgeLabel;html=1;align=center;verticalAlign=middle;resizable=0;points=[];" vertex="1" connectable="0" parent="gQ4uNMBU5wz3fI6kMUp5-34">
          <mxGeometry x="-0.7706" relative="1" as="geometry">
            <mxPoint x="-7" y="-7" as="offset" />
          </mxGeometry>
        </mxCell>
        <mxCell id="gQ4uNMBU5wz3fI6kMUp5-26" value="f&lt;sub&gt;i&lt;/sub&gt;&amp;lt;f(b&lt;sub&gt;i&lt;/sub&gt;)" style="strokeWidth=2;html=1;shape=mxgraph.flowchart.decision;whiteSpace=wrap;" vertex="1" parent="WIyWlLk6GJQsqaUBKTNV-1">
          <mxGeometry x="178.5" y="520" width="100" height="70" as="geometry" />
        </mxCell>
        <mxCell id="gQ4uNMBU5wz3fI6kMUp5-33" style="edgeStyle=orthogonalEdgeStyle;rounded=0;orthogonalLoop=1;jettySize=auto;html=1;exitX=0.5;exitY=1;exitDx=0;exitDy=0;entryX=0.5;entryY=0;entryDx=0;entryDy=0;entryPerimeter=0;" edge="1" parent="WIyWlLk6GJQsqaUBKTNV-1" source="gQ4uNMBU5wz3fI6kMUp5-28" target="gQ4uNMBU5wz3fI6kMUp5-32">
          <mxGeometry relative="1" as="geometry" />
        </mxCell>
        <mxCell id="gQ4uNMBU5wz3fI6kMUp5-28" value="b&lt;sub&gt;i&lt;/sub&gt;=p&lt;sub&gt;i&lt;/sub&gt;" style="rounded=1;whiteSpace=wrap;html=1;absoluteArcSize=1;arcSize=14;strokeWidth=2;" vertex="1" parent="WIyWlLk6GJQsqaUBKTNV-1">
          <mxGeometry x="90" y="590" width="81.5" height="30" as="geometry" />
        </mxCell>
        <mxCell id="gQ4uNMBU5wz3fI6kMUp5-31" value="YES" style="text;html=1;align=center;verticalAlign=middle;resizable=0;points=[];autosize=1;strokeColor=none;fillColor=none;" vertex="1" parent="WIyWlLk6GJQsqaUBKTNV-1">
          <mxGeometry x="136" y="548" width="50" height="30" as="geometry" />
        </mxCell>
        <mxCell id="gQ4uNMBU5wz3fI6kMUp5-37" style="edgeStyle=orthogonalEdgeStyle;rounded=0;orthogonalLoop=1;jettySize=auto;html=1;exitX=0;exitY=0.5;exitDx=0;exitDy=0;exitPerimeter=0;entryX=0.5;entryY=0;entryDx=0;entryDy=0;" edge="1" parent="WIyWlLk6GJQsqaUBKTNV-1" source="gQ4uNMBU5wz3fI6kMUp5-32" target="gQ4uNMBU5wz3fI6kMUp5-36">
          <mxGeometry relative="1" as="geometry" />
        </mxCell>
        <mxCell id="gQ4uNMBU5wz3fI6kMUp5-41" style="edgeStyle=orthogonalEdgeStyle;rounded=0;orthogonalLoop=1;jettySize=auto;html=1;exitX=1;exitY=0.5;exitDx=0;exitDy=0;exitPerimeter=0;entryX=0.5;entryY=0;entryDx=0;entryDy=0;" edge="1" parent="WIyWlLk6GJQsqaUBKTNV-1" source="gQ4uNMBU5wz3fI6kMUp5-32" target="gQ4uNMBU5wz3fI6kMUp5-39">
          <mxGeometry relative="1" as="geometry" />
        </mxCell>
        <mxCell id="gQ4uNMBU5wz3fI6kMUp5-32" value="f&lt;sub&gt;i&lt;/sub&gt;&amp;lt;f&lt;sub&gt;best&lt;/sub&gt;" style="strokeWidth=2;html=1;shape=mxgraph.flowchart.decision;whiteSpace=wrap;" vertex="1" parent="WIyWlLk6GJQsqaUBKTNV-1">
          <mxGeometry x="178.5" y="620" width="91.5" height="60" as="geometry" />
        </mxCell>
        <mxCell id="gQ4uNMBU5wz3fI6kMUp5-43" style="edgeStyle=orthogonalEdgeStyle;rounded=0;orthogonalLoop=1;jettySize=auto;html=1;exitX=0.5;exitY=1;exitDx=0;exitDy=0;entryX=0;entryY=0.75;entryDx=0;entryDy=0;" edge="1" parent="WIyWlLk6GJQsqaUBKTNV-1" source="gQ4uNMBU5wz3fI6kMUp5-36" target="gQ4uNMBU5wz3fI6kMUp5-39">
          <mxGeometry relative="1" as="geometry" />
        </mxCell>
        <mxCell id="gQ4uNMBU5wz3fI6kMUp5-36" value="p&lt;sub&gt;best&lt;/sub&gt;=p&lt;sub&gt;i&lt;/sub&gt;" style="rounded=1;whiteSpace=wrap;html=1;absoluteArcSize=1;arcSize=14;strokeWidth=2;" vertex="1" parent="WIyWlLk6GJQsqaUBKTNV-1">
          <mxGeometry x="96" y="690" width="90" height="30" as="geometry" />
        </mxCell>
        <mxCell id="gQ4uNMBU5wz3fI6kMUp5-38" value="YES" style="text;html=1;align=center;verticalAlign=middle;resizable=0;points=[];autosize=1;strokeColor=none;fillColor=none;" vertex="1" parent="WIyWlLk6GJQsqaUBKTNV-1">
          <mxGeometry x="136" y="668" width="50" height="30" as="geometry" />
        </mxCell>
        <mxCell id="gQ4uNMBU5wz3fI6kMUp5-45" style="edgeStyle=orthogonalEdgeStyle;rounded=0;orthogonalLoop=1;jettySize=auto;html=1;exitX=0.5;exitY=1;exitDx=0;exitDy=0;entryX=0.5;entryY=0;entryDx=0;entryDy=0;entryPerimeter=0;" edge="1" parent="WIyWlLk6GJQsqaUBKTNV-1" source="gQ4uNMBU5wz3fI6kMUp5-39" target="gQ4uNMBU5wz3fI6kMUp5-44">
          <mxGeometry relative="1" as="geometry" />
        </mxCell>
        <mxCell id="gQ4uNMBU5wz3fI6kMUp5-39" value="i=i+1" style="rounded=1;whiteSpace=wrap;html=1;absoluteArcSize=1;arcSize=14;strokeWidth=2;" vertex="1" parent="WIyWlLk6GJQsqaUBKTNV-1">
          <mxGeometry x="210" y="698" width="112" height="30" as="geometry" />
        </mxCell>
        <mxCell id="gQ4uNMBU5wz3fI6kMUp5-42" value="NO" style="text;html=1;align=center;verticalAlign=middle;resizable=0;points=[];autosize=1;strokeColor=none;fillColor=none;" vertex="1" parent="WIyWlLk6GJQsqaUBKTNV-1">
          <mxGeometry x="270" y="668" width="40" height="30" as="geometry" />
        </mxCell>
        <mxCell id="gQ4uNMBU5wz3fI6kMUp5-51" style="edgeStyle=orthogonalEdgeStyle;rounded=0;orthogonalLoop=1;jettySize=auto;html=1;exitX=0;exitY=0.5;exitDx=0;exitDy=0;exitPerimeter=0;entryX=0;entryY=0.5;entryDx=0;entryDy=0;" edge="1" parent="WIyWlLk6GJQsqaUBKTNV-1" source="gQ4uNMBU5wz3fI6kMUp5-44" target="gQ4uNMBU5wz3fI6kMUp5-11">
          <mxGeometry relative="1" as="geometry">
            <Array as="points">
              <mxPoint x="50" y="850" />
              <mxPoint x="50" y="425" />
            </Array>
          </mxGeometry>
        </mxCell>
        <mxCell id="gQ4uNMBU5wz3fI6kMUp5-55" style="edgeStyle=orthogonalEdgeStyle;rounded=0;orthogonalLoop=1;jettySize=auto;html=1;exitX=1;exitY=0.5;exitDx=0;exitDy=0;exitPerimeter=0;entryX=0.582;entryY=0;entryDx=0;entryDy=0;entryPerimeter=0;" edge="1" parent="WIyWlLk6GJQsqaUBKTNV-1" source="gQ4uNMBU5wz3fI6kMUp5-44" target="gQ4uNMBU5wz3fI6kMUp5-54">
          <mxGeometry relative="1" as="geometry" />
        </mxCell>
        <mxCell id="gQ4uNMBU5wz3fI6kMUp5-44" value="i&amp;lt;=m" style="strokeWidth=2;html=1;shape=mxgraph.flowchart.decision;whiteSpace=wrap;" vertex="1" parent="WIyWlLk6GJQsqaUBKTNV-1">
          <mxGeometry x="201" y="750" width="100" height="60" as="geometry" />
        </mxCell>
        <mxCell id="gQ4uNMBU5wz3fI6kMUp5-52" value="YES" style="text;html=1;align=center;verticalAlign=middle;resizable=0;points=[];autosize=1;strokeColor=none;fillColor=none;" vertex="1" parent="WIyWlLk6GJQsqaUBKTNV-1">
          <mxGeometry x="121.5" y="820" width="50" height="30" as="geometry" />
        </mxCell>
        <mxCell id="gQ4uNMBU5wz3fI6kMUp5-59" style="edgeStyle=orthogonalEdgeStyle;rounded=0;orthogonalLoop=1;jettySize=auto;html=1;exitX=0.5;exitY=1;exitDx=0;exitDy=0;entryX=0.5;entryY=0;entryDx=0;entryDy=0;entryPerimeter=0;" edge="1" parent="WIyWlLk6GJQsqaUBKTNV-1" source="gQ4uNMBU5wz3fI6kMUp5-54" target="gQ4uNMBU5wz3fI6kMUp5-57">
          <mxGeometry relative="1" as="geometry" />
        </mxCell>
        <mxCell id="gQ4uNMBU5wz3fI6kMUp5-54" value="iter=iter+1" style="rounded=1;whiteSpace=wrap;html=1;absoluteArcSize=1;arcSize=14;strokeWidth=2;" vertex="1" parent="WIyWlLk6GJQsqaUBKTNV-1">
          <mxGeometry x="210" y="840" width="110" height="40" as="geometry" />
        </mxCell>
        <mxCell id="gQ4uNMBU5wz3fI6kMUp5-58" style="edgeStyle=orthogonalEdgeStyle;rounded=0;orthogonalLoop=1;jettySize=auto;html=1;exitX=0;exitY=0.5;exitDx=0;exitDy=0;exitPerimeter=0;entryX=0;entryY=0.25;entryDx=0;entryDy=0;" edge="1" parent="WIyWlLk6GJQsqaUBKTNV-1" source="gQ4uNMBU5wz3fI6kMUp5-57" target="gQ4uNMBU5wz3fI6kMUp5-9">
          <mxGeometry relative="1" as="geometry">
            <Array as="points">
              <mxPoint x="30" y="1015" />
              <mxPoint x="30" y="368" />
            </Array>
          </mxGeometry>
        </mxCell>
        <mxCell id="gQ4uNMBU5wz3fI6kMUp5-60" value="YES" style="edgeLabel;html=1;align=center;verticalAlign=middle;resizable=0;points=[];" vertex="1" connectable="0" parent="gQ4uNMBU5wz3fI6kMUp5-58">
          <mxGeometry x="-0.9262" y="-3" relative="1" as="geometry">
            <mxPoint x="17" y="-12" as="offset" />
          </mxGeometry>
        </mxCell>
        <mxCell id="gQ4uNMBU5wz3fI6kMUp5-63" style="edgeStyle=orthogonalEdgeStyle;rounded=0;orthogonalLoop=1;jettySize=auto;html=1;exitX=1;exitY=0.5;exitDx=0;exitDy=0;exitPerimeter=0;entryX=0.5;entryY=0;entryDx=0;entryDy=0;" edge="1" parent="WIyWlLk6GJQsqaUBKTNV-1" source="gQ4uNMBU5wz3fI6kMUp5-57" target="gQ4uNMBU5wz3fI6kMUp5-62">
          <mxGeometry relative="1" as="geometry" />
        </mxCell>
        <mxCell id="gQ4uNMBU5wz3fI6kMUp5-64" value="NO" style="edgeLabel;html=1;align=center;verticalAlign=middle;resizable=0;points=[];" vertex="1" connectable="0" parent="gQ4uNMBU5wz3fI6kMUp5-63">
          <mxGeometry x="-0.7006" y="-1" relative="1" as="geometry">
            <mxPoint x="-9" y="-8" as="offset" />
          </mxGeometry>
        </mxCell>
        <mxCell id="gQ4uNMBU5wz3fI6kMUp5-57" value="iter&amp;lt;itermax" style="strokeWidth=2;html=1;shape=mxgraph.flowchart.decision;whiteSpace=wrap;" vertex="1" parent="WIyWlLk6GJQsqaUBKTNV-1">
          <mxGeometry x="215" y="900" width="100" height="70" as="geometry" />
        </mxCell>
        <mxCell id="gQ4uNMBU5wz3fI6kMUp5-67" style="edgeStyle=orthogonalEdgeStyle;rounded=0;orthogonalLoop=1;jettySize=auto;html=1;exitX=0.5;exitY=1;exitDx=0;exitDy=0;entryX=0.5;entryY=0;entryDx=0;entryDy=0;" edge="1" parent="WIyWlLk6GJQsqaUBKTNV-1" source="gQ4uNMBU5wz3fI6kMUp5-62" target="gQ4uNMBU5wz3fI6kMUp5-66">
          <mxGeometry relative="1" as="geometry" />
        </mxCell>
        <mxCell id="gQ4uNMBU5wz3fI6kMUp5-62" value="Apply g(x,p&lt;sub&gt;best&lt;/sub&gt;) to the test set" style="rounded=1;whiteSpace=wrap;html=1;absoluteArcSize=1;arcSize=14;strokeWidth=2;" vertex="1" parent="WIyWlLk6GJQsqaUBKTNV-1">
          <mxGeometry x="225" y="1000" width="117.75" height="50" as="geometry" />
        </mxCell>
        <mxCell id="gQ4uNMBU5wz3fI6kMUp5-65" value="NO" style="text;html=1;align=center;verticalAlign=middle;resizable=0;points=[];autosize=1;strokeColor=none;fillColor=none;" vertex="1" parent="WIyWlLk6GJQsqaUBKTNV-1">
          <mxGeometry x="301" y="758" width="40" height="30" as="geometry" />
        </mxCell>
        <mxCell id="gQ4uNMBU5wz3fI6kMUp5-69" style="edgeStyle=orthogonalEdgeStyle;rounded=0;orthogonalLoop=1;jettySize=auto;html=1;exitX=0.5;exitY=1;exitDx=0;exitDy=0;entryX=0.5;entryY=0;entryDx=0;entryDy=0;entryPerimeter=0;" edge="1" parent="WIyWlLk6GJQsqaUBKTNV-1" source="gQ4uNMBU5wz3fI6kMUp5-66" target="gQ4uNMBU5wz3fI6kMUp5-68">
          <mxGeometry relative="1" as="geometry" />
        </mxCell>
        <mxCell id="gQ4uNMBU5wz3fI6kMUp5-66" value="Apply a machine learning model to the reduced test set" style="rounded=1;whiteSpace=wrap;html=1;absoluteArcSize=1;arcSize=14;strokeWidth=2;" vertex="1" parent="WIyWlLk6GJQsqaUBKTNV-1">
          <mxGeometry x="225" y="1060" width="110" height="50" as="geometry" />
        </mxCell>
        <mxCell id="gQ4uNMBU5wz3fI6kMUp5-68" value="Report test error and terminate" style="strokeWidth=2;html=1;shape=mxgraph.flowchart.terminator;whiteSpace=wrap;" vertex="1" parent="WIyWlLk6GJQsqaUBKTNV-1">
          <mxGeometry x="217.5" y="1130" width="125" height="51" as="geometry" />
        </mxCell>
      </root>
    </mxGraphModel>
  </diagram>
</mxfile>
